<svg xmlns="http://www.w3.org/2000/svg" xmlns:xlink="http://www.w3.org/1999/xlink" viewBox="0 0 161.43 181.81"><defs><linearGradient id="ad78ff45-dd84-4af6-aae5-5d7c7b4dcd4e" x1="40.36" y1="160.81" x2="121.07" y2="21" gradientUnits="userSpaceOnUse"><stop offset="0" stop-color="#696eff"/><stop offset="0.37" stop-color="#3c60ff"/><stop offset="0.73" stop-color="#63c7ff"/><stop offset="1" stop-color="#d4e7ff"/></linearGradient></defs><title>Asset 7</title><g id="b1c58060-1c23-48a7-8dcf-cd544fc03d05" data-name="Layer 2"><g id="abb2c15a-451a-49e5-95c7-6f1e1e627956" data-name="Layer 1"><path d="M161.43,128.94V52.87A14.84,14.84,0,0,0,154,40L88.13,2A14.84,14.84,0,0,0,73.29,2L7.42,40A14.84,14.84,0,0,0,0,52.87v76.07a14.84,14.84,0,0,0,7.42,12.85l65.87,38a14.84,14.84,0,0,0,14.84,0l65.88-38A14.84,14.84,0,0,0,161.43,128.94Z" style="fill:url(#ad78ff45-dd84-4af6-aae5-5d7c7b4dcd4e)"/><path d="M132.71,79.08a5.84,5.84,0,0,0-1.26-3.63,11.32,11.32,0,0,0-3.94-2.65l-2.81-1.45-6.19-3.2a3.07,3.07,0,0,0-.6-.31l11.76-6.79a5.92,5.92,0,0,0,3-5.13l0-7a6,6,0,0,0-1.2-3.59c-1-1.28-2.59-2-3.93-2.82-.73-.37-1.42-.88-2.11-1.3s-1.46-.88-2.17-1.34c-1.41-.92-2.86-1.79-4.3-2.67l-6.85-4.23-5.21-3.21c-.5-.32-1-.63-1.52-.94-3.26-2-6.53.07-8.49,1.31-.31.2-.6.39-.89.55C86.75,36,77.77,41.32,67.82,47.19c-1.56.93-3.16,1.83-4.75,2.73-7.06,4-14.37,8.13-19.85,14.62a50.18,50.18,0,0,0-6.41,9.66c-4.14,8.13-6.91,17.61-6,26.69l0,.39c.26,2.67.62,6.33,2.46,8.65,1,1.26,7.62,5.08,14.52,8.76l-12.64,8.37a2.19,2.19,0,0,0-1,1.61h0a2.19,2.19,0,0,0-.17.85v9.61a2.23,2.23,0,0,0,.9,1.8l.27.17,0,0,27,14.88.35.19a1.51,1.51,0,0,0,.29.13,5.7,5.7,0,0,0,2.34.5,5.89,5.89,0,0,0,3-.8l45.27-26.14c5.27-3,9.9-8,13.75-14.63a38.59,38.59,0,0,0,5.55-19.33v-.1Zm-12.53-5a1.15,1.15,0,0,1,0,2l-42,24.22a1.36,1.36,0,0,1-2-1.17V96.76a8.8,8.8,0,0,1,1.46-4.13,9,9,0,0,1,3.11-3.36l31.95-18.45a1.13,1.13,0,0,1,1.1,0ZM37.09,107a1,1,0,0,1-.24-.26c-.86-1.34-1.14-4.21-1.32-6l0-.4c-.82-8.19,1.78-16.75,5.51-24.09a46,46,0,0,1,5.81-8.75c5.77-6.85,14-10.82,21.61-15.28,3-1.89,12.5-7.37,15.11-8.91l14.79-8.67c.33-.19.68-.42,1-.65,1.55-1,2.79-1.7,3.49-1.27l17.71,10.9a1.15,1.15,0,0,1,0,2l-42,24.27c-5.28,3-9.9,8-13.74,14.63A38.51,38.51,0,0,0,59.18,104l0,13.36a1.15,1.15,0,0,1-1.67,1C49.82,114.39,39,108.53,37.09,107Zm15.32,14a121.69,121.69,0,0,0,11.35,5.36,5.94,5.94,0,0,0,1.39.17,5.86,5.86,0,0,0,2.93-.79l43.74-25.25a1.32,1.32,0,0,1,1.35,0,1.34,1.34,0,0,1,.69,1.19v2.84a.94.94,0,0,1,0,.25,11.78,11.78,0,0,1-1.38,3.42,9,9,0,0,1-3.11,3.37L62.29,138.79a5.74,5.74,0,0,0-.76.53l-20.11-11Zm7,28.2L38.53,137.81v-5.93l20.85,11.39c0,.21,0,.43,0,.64Zm64-36.26c-3.45,6-7.52,10.32-12.09,13L66,152.11a1.36,1.36,0,0,1-2-1.18l0-7.05a1.33,1.33,0,0,1,.67-1.17l47.06-27.16a13.48,13.48,0,0,0,4.78-5,16.48,16.48,0,0,0,1.9-4.83,6.5,6.5,0,0,0,.1-1.09v-2.85a5.93,5.93,0,0,0-5.91-5.9,5.78,5.78,0,0,0-2.94.8L65.82,121.89a1.28,1.28,0,0,1-.55.17,1.38,1.38,0,0,1-.82-.18,1.18,1.18,0,0,1-.35-.29,1.29,1.29,0,0,1-.33-.89L63.72,104a34.09,34.09,0,0,1,4.94-17.16c3.44-6,7.51-10.33,12.08-13L126,47.73a1.29,1.29,0,0,1,1.16-.1,1.35,1.35,0,0,1,.89,1.28l0,7a1.4,1.4,0,0,1-.68,1.2L78.53,85.35a15.46,15.46,0,0,0-6.85,11.43v2.37a5.91,5.91,0,0,0,8.85,5.09l45.59-26.32a1.37,1.37,0,0,1,2,1.18l.08,16.76A34.08,34.08,0,0,1,123.32,113Z" style="fill:#fff"/></g></g></svg>