<?xml version="1.0" encoding="UTF-8"?>
<svg xmlns="http://www.w3.org/2000/svg" xmlns:xlink="http://www.w3.org/1999/xlink" viewBox="0 0 240 240" width="240px" height="240px">
<g id="surface125722079">
<path style=" stroke:none;fill-rule:nonzero;fill:rgb(23.137255%,50.980395%,96.470588%);fill-opacity:1;" d="M 32 40 C 23.160156 40 16 47.160156 16 56 L 16 184 C 16 192.839844 23.160156 200 32 200 L 208 200 C 216.839844 200 224 192.839844 224 184 L 224 56 C 224 47.160156 216.839844 40 208 40 Z M 184 64 C 192.839844 64 200 71.160156 200 80 C 200 88.839844 192.839844 96 184 96 C 175.160156 96 168 88.839844 168 80 C 168 71.160156 175.160156 64 184 64 Z M 72 96.015625 C 76.953125 96.015625 81.90625 97.90625 85.6875 101.6875 L 129.25 145.25 C 132.625 148.625 138.078125 148.59375 141.453125 145.21875 C 144.835938 141.84375 144.835938 136.351562 141.453125 132.96875 L 132.234375 123.765625 L 138.3125 117.6875 C 145.871094 110.128906 158.128906 110.128906 165.6875 117.6875 L 200 152 L 200 176 L 40 176 L 40 120 L 58.3125 101.6875 C 62.09375 97.90625 67.046875 96.015625 72 96.015625 Z M 72 96.015625 "/>
</g>
</svg>
